<?xml version="1.0" standalone="no"?>
<!DOCTYPE svg PUBLIC "-//W3C//DTD SVG 20010904//EN"
 "http://www.w3.org/TR/2001/REC-SVG-20010904/DTD/svg10.dtd">
<svg version="1.0" xmlns="http://www.w3.org/2000/svg"
 width="6987.000000pt" height="1938.000000pt" viewBox="0 0 6987.000000 1938.000000"
 preserveAspectRatio="xMidYMid meet">
<metadata>
Created by potrace 1.16, written by Peter Selinger 2001-2019
</metadata>
<g transform="translate(0.000000,1938.000000) scale(0.100000,-0.100000)"
fill="#000000" stroke="none">
<path d="M21827 12824 c-1 -1 -60 -4 -131 -8 -153 -8 -375 -38 -527 -71 -726
-161 -1213 -534 -1422 -1090 -122 -323 -129 -760 -17 -1097 66 -198 168 -363
325 -527 243 -252 518 -410 1006 -577 172 -59 466 -142 644 -184 412 -95 786
-200 930 -261 311 -133 505 -332 559 -576 20 -89 20 -255 1 -346 -67 -316
-369 -583 -777 -688 -265 -67 -666 -66 -918 2 -237 65 -460 225 -595 429 -86
129 -131 215 -219 418 -98 229 -146 311 -231 397 -132 135 -295 181 -490 140
-109 -23 -190 -68 -271 -150 -124 -125 -171 -260 -160 -455 25 -430 300 -914
706 -1243 335 -271 776 -435 1325 -492 177 -18 497 -25 685 -14 795 46 1448
340 1825 824 252 323 375 702 375 1148 -1 493 -134 842 -440 1148 -321 321
-810 534 -1784 775 -581 144 -766 200 -941 284 -322 155 -470 342 -469 595 1
152 49 273 156 389 106 117 240 203 403 259 172 59 267 72 540 72 211 -1 253
-3 349 -23 220 -46 356 -120 495 -268 102 -110 178 -221 286 -419 183 -335
276 -435 441 -470 207 -44 375 3 514 144 138 140 186 270 177 476 -15 303
-152 583 -411 840 -216 214 -452 357 -778 470 -285 100 -576 145 -956 149
-111 1 -204 1 -205 0z"/>
<path d="M37910 12823 c-181 -7 -435 -39 -613 -78 -743 -161 -1248 -562 -1441
-1145 -48 -145 -66 -258 -73 -445 -18 -520 137 -898 500 -1223 252 -225 626
-403 1187 -567 69 -20 296 -78 505 -130 605 -149 803 -215 981 -326 160 -101
276 -227 329 -358 72 -176 72 -406 1 -583 -94 -233 -341 -441 -636 -538 -164
-54 -285 -72 -510 -77 -310 -8 -513 27 -694 119 -294 147 -442 333 -647 812
-82 190 -143 290 -225 372 -106 104 -238 151 -394 140 -150 -10 -263 -61 -363
-165 -120 -124 -163 -249 -153 -446 9 -193 59 -372 158 -569 251 -500 673
-858 1220 -1037 626 -204 1500 -208 2123 -9 371 119 657 288 900 534 224 225
369 476 450 778 77 283 86 646 23 938 -75 353 -274 663 -560 873 -354 259
-771 421 -1678 647 -672 168 -838 225 -1052 362 -283 181 -379 471 -248 747
91 190 326 363 588 431 155 41 283 53 502 47 424 -10 635 -96 840 -339 90
-107 149 -197 234 -358 182 -340 283 -449 453 -485 244 -52 453 32 589 237
118 177 135 389 52 648 -130 407 -470 755 -944 968 -250 112 -529 183 -834
211 -113 11 -441 19 -570 14z"/>
<path d="M50910 12754 c-97 -26 -179 -74 -260 -154 -118 -115 -160 -221 -160
-398 0 -167 50 -292 159 -395 115 -108 248 -159 420 -158 162 0 294 49 400
147 117 108 160 207 168 384 6 130 -9 212 -54 308 -53 112 -198 224 -342 264
-81 22 -251 23 -331 2z"/>
<path d="M27795 12746 c-104 -26 -135 -54 -296 -273 -56 -76 -134 -181 -172
-233 -108 -145 -210 -263 -347 -400 -275 -274 -515 -435 -1008 -676 -478 -233
-552 -295 -582 -493 -32 -203 78 -410 267 -503 65 -32 72 -33 183 -33 109 1
120 3 215 39 271 104 618 318 1098 678 64 48 119 88 122 88 3 0 6 -903 7
-2007 l3 -2008 22 -76 c60 -212 189 -350 378 -405 82 -24 249 -24 330 0 187
56 294 171 358 386 55 183 52 36 52 2835 0 2503 -1 2603 -19 2675 -55 223
-195 376 -375 410 -70 13 -173 11 -236 -4z"/>
<path d="M58873 12666 c-211 -48 -373 -217 -418 -433 -22 -108 -35 -404 -35
-813 0 -201 0 -375 0 -386 0 -20 -6 -21 -142 -26 -119 -5 -156 -10 -221 -32
-93 -31 -117 -45 -180 -105 -127 -120 -152 -307 -64 -474 78 -148 229 -217
479 -217 126 0 128 0 128 -22 0 -13 0 -520 0 -1128 0 -627 4 -1191 10 -1305
28 -535 101 -789 283 -982 232 -246 584 -341 1161 -313 418 20 696 101 858
250 221 202 181 544 -79 676 -54 27 -65 29 -163 28 -73 -1 -146 -10 -240 -30
-111 -23 -160 -28 -275 -29 -136 0 -142 1 -198 30 -66 33 -96 64 -133 137 -58
115 -57 81 -61 1439 l-4 1247 233 5 c180 4 253 9 323 25 227 50 340 149 363
319 32 237 -98 418 -340 468 -50 11 -139 15 -324 15 l-254 0 0 473 c0 628 -13
770 -83 901 -61 115 -197 227 -326 267 -86 26 -217 33 -298 15z"/>
<path d="M43420 11113 c-154 -15 -249 -27 -335 -44 -1091 -213 -1745 -1090
-1745 -2338 0 -882 316 -1544 932 -1951 381 -252 931 -376 1518 -342 688 40
1224 271 1588 682 201 228 316 489 316 720 0 122 -19 185 -84 286 -106 161
-264 242 -445 227 -181 -15 -314 -122 -464 -373 -163 -272 -276 -402 -449
-519 -298 -201 -760 -226 -1097 -58 -103 51 -192 116 -275 203 -251 261 -380
648 -380 1136 0 279 29 476 101 693 104 312 307 563 559 690 290 147 728 139
995 -17 174 -102 310 -244 525 -549 74 -105 188 -215 256 -246 113 -52 289
-43 419 21 211 104 316 310 274 542 -38 218 -159 426 -369 634 -184 183 -371
308 -615 410 -259 110 -465 162 -744 190 -95 9 -398 11 -481 3z"/>
<path d="M30921 11094 c-142 -38 -264 -144 -319 -277 -65 -156 -63 -65 -60
-2068 l3 -1814 28 -90 c38 -119 70 -176 144 -256 107 -113 229 -163 398 -162
275 1 471 153 551 428 16 54 18 156 24 1095 8 1134 16 1288 71 1515 27 112
114 283 196 385 129 161 326 289 523 342 119 31 366 31 485 -1 260 -69 389
-216 470 -535 56 -220 59 -274 62 -1156 6 -1502 7 -1554 31 -1639 34 -122 78
-198 156 -277 112 -112 221 -157 386 -158 112 -1 180 15 271 60 134 67 230
196 282 379 l22 80 0 1340 c0 1409 -2 1481 -46 1697 -86 430 -364 790 -750
972 -120 57 -249 99 -386 127 -137 27 -423 37 -574 20 -482 -56 -852 -263
-1189 -665 l-75 -90 -6 145 c-7 169 -17 215 -71 327 -67 143 -181 237 -334
277 -73 19 -221 18 -293 -1z"/>
<path d="M47105 11096 c-191 -47 -317 -184 -375 -409 -10 -40 -23 -122 -29
-182 -15 -143 -15 -3403 -1 -3525 21 -182 85 -318 195 -418 108 -99 236 -143
393 -137 311 14 511 220 552 568 4 39 9 393 9 784 1 848 13 1116 62 1423 85
540 261 816 569 897 87 23 276 22 393 -1 49 -9 146 -34 215 -56 274 -84 317
-91 408 -66 81 21 153 65 225 136 103 103 148 224 136 373 -19 241 -186 406
-547 540 -176 65 -279 82 -500 81 -216 0 -289 -14 -419 -74 -187 -88 -380
-294 -567 -606 -10 -16 -13 -10 -18 41 -16 136 -29 213 -48 275 -79 257 -236
371 -503 369 -55 0 -122 -6 -150 -13z"/>
<path d="M50906 11094 c-202 -49 -348 -213 -396 -444 -19 -92 -20 -146 -20
-1875 0 -1727 1 -1783 20 -1875 39 -191 140 -336 285 -411 84 -44 142 -59 244
-63 163 -8 304 45 417 158 87 87 137 184 165 321 19 92 19 150 17 1907 -3
1698 -4 1817 -21 1873 -31 107 -77 185 -152 260 -117 118 -237 165 -410 164
-49 0 -116 -7 -149 -15z"/>
<path d="M53180 11091 c-36 -10 -79 -25 -96 -34 -94 -49 -185 -153 -225 -256
-52 -137 -49 10 -49 -2853 0 -2265 2 -2667 14 -2748 44 -289 135 -414 337
-466 78 -20 256 -23 329 -5 210 51 333 204 387 479 15 77 18 199 23 1035 l5
949 55 -68 c182 -224 473 -463 683 -559 300 -137 726 -178 1097 -104 228 45
504 163 685 293 466 335 764 883 860 1581 22 158 31 551 16 725 -49 584 -225
1042 -544 1419 -240 282 -625 508 -997 585 -218 45 -553 48 -750 7 -202 -42
-394 -119 -558 -225 -150 -96 -373 -297 -508 -459 l-41 -49 -6 139 c-11 229
-54 354 -162 471 -70 75 -148 121 -250 147 -79 20 -223 18 -305 -4z m2128
-871 c451 -109 764 -547 831 -1162 14 -125 14 -421 0 -546 -66 -604 -372
-1042 -814 -1162 -119 -33 -329 -38 -455 -12 -373 77 -677 361 -819 766 -116
330 -131 847 -36 1231 60 243 155 422 309 583 147 153 294 243 486 296 141 40
350 42 498 6z"/>
<path d="M62600 11100 c-664 -69 -1148 -356 -1375 -818 -95 -194 -132 -384
-114 -599 32 -401 272 -716 714 -936 256 -128 545 -225 1090 -366 477 -123
709 -216 822 -328 99 -99 143 -209 143 -360 0 -140 -56 -243 -187 -342 -213
-160 -516 -213 -890 -155 -315 48 -560 211 -739 489 -25 39 -76 117 -113 175
-79 123 -167 209 -238 235 -63 22 -222 31 -295 16 -90 -19 -169 -64 -235 -134
-69 -75 -99 -131 -119 -229 -53 -251 115 -625 381 -848 207 -174 483 -311 774
-386 430 -111 1025 -120 1496 -23 813 168 1253 630 1291 1355 8 149 -5 267
-43 389 -107 341 -415 615 -913 813 -221 87 -315 115 -810 241 -195 49 -407
105 -471 124 -316 94 -500 208 -565 350 -38 82 -40 205 -6 280 60 133 213 244
407 297 114 32 401 40 530 15 222 -41 377 -143 565 -370 202 -244 326 -346
458 -374 121 -25 293 -6 392 44 59 30 140 101 170 150 58 93 79 251 50 376
-32 142 -163 341 -304 462 -272 231 -601 365 -1081 438 -148 23 -635 34 -785
19z"/>
</g>
</svg>
