<?xml version="1.0" standalone="no"?>
<!DOCTYPE svg PUBLIC "-//W3C//DTD SVG 20010904//EN"
 "http://www.w3.org/TR/2001/REC-SVG-20010904/DTD/svg10.dtd">
<svg version="1.0" xmlns="http://www.w3.org/2000/svg"
 width="128.000000pt" height="128.000000pt" viewBox="0 0 128.000000 128.000000"
 preserveAspectRatio="xMidYMid meet">

<g transform="translate(0.000000,128.000000) scale(0.100000,-0.100000)"
fill="#000000" stroke="none">
<path d="M0 640 l0 -640 640 0 640 0 0 640 0 640 -640 0 -640 0 0 -640z m825
348 c120 -59 151 -77 153 -95 2 -17 -4 -26 -23 -35 -24 -11 -39 -6 -168 62
l-142 73 -98 -43 c-54 -23 -95 -46 -90 -50 4 -5 61 -32 125 -60 138 -61 153
-74 119 -101 -13 -11 -33 -19 -44 -19 -34 0 -367 161 -367 177 0 9 54 40 133
77 72 34 148 69 167 79 19 9 46 15 60 12 14 -2 93 -37 175 -77z m-357 -247
c81 -37 154 -70 162 -73 8 -3 39 5 68 18 l52 23 0 -53 0 -54 -56 -22 -56 -23
-131 62 c-139 65 -150 66 -145 8 3 -25 15 -33 131 -87 71 -33 137 -60 148 -60
11 0 37 9 59 20 53 27 92 25 129 -6 29 -24 31 -30 31 -98 0 -90 -13 -109 -99
-149 -112 -52 -147 -47 -337 48 -125 63 -160 85 -162 102 -2 14 5 27 21 38 23
15 29 14 113 -26 49 -23 122 -57 162 -75 39 -19 78 -34 85 -34 6 0 36 11 65
25 45 21 52 28 52 53 0 16 -3 31 -6 34 -3 4 -28 -4 -56 -17 -48 -22 -52 -23
-93 -7 -24 9 -110 50 -192 91 l-148 76 -3 114 c-3 118 3 141 39 141 11 0 85
-31 167 -69z m540 41 c9 -12 12 -65 10 -211 l-3 -195 -40 -23 c-22 -12 -43
-23 -47 -23 -5 0 -8 72 -8 159 0 88 -3 166 -6 174 -5 13 -14 12 -60 -9 l-55
-24 3 52 3 52 74 38 c77 39 104 41 129 10z"/>
</g>
</svg>
