<?xml version="1.0" standalone="no"?>
<!DOCTYPE svg PUBLIC "-//W3C//DTD SVG 20010904//EN"
 "http://www.w3.org/TR/2001/REC-SVG-20010904/DTD/svg10.dtd">
<svg version="1.0" xmlns="http://www.w3.org/2000/svg"
 width="12348.000000pt" height="10573.000000pt" viewBox="0 0 12348.000000 10573.000000"
 preserveAspectRatio="xMidYMid meet">
<metadata>
Created by potrace 1.16, written by Peter Selinger 2001-2019
</metadata>
<g transform="translate(0.000000,10573.000000) scale(0.100000,-0.100000)"
fill="#000000" stroke="none">
<path d="M0 52865 l0 -52865 61735 0 61735 0 0 52865 0 52865 -61735 0 -61735
0 0 -52865z m38015 6910 c165 -34 232 -61 650 -265 116 -56 287 -140 380 -185
94 -45 265 -129 380 -185 116 -56 287 -140 380 -185 94 -45 265 -129 380 -185
116 -56 280 -136 365 -177 85 -42 324 -158 530 -258 206 -101 422 -205 480
-233 58 -27 238 -115 400 -194 162 -80 336 -164 385 -188 257 -122 491 -244
539 -280 157 -119 238 -320 215 -531 -18 -162 -99 -303 -234 -407 -57 -45
-304 -160 -378 -177 -155 -35 -312 -30 -446 16 -45 16 -373 183 -596 304 -22
12 -107 57 -190 100 -82 43 -220 115 -305 160 -252 134 -1096 579 -1445 763
-192 100 -349 183 -720 379 -93 50 -213 113 -265 140 -230 121 -324 171 -460
243 -80 42 -177 94 -216 114 l-71 37 -194 -87 c-107 -48 -232 -103 -279 -124
-47 -21 -112 -50 -145 -65 -33 -15 -98 -44 -145 -65 -47 -21 -130 -58 -185
-83 -55 -25 -309 -138 -565 -252 -256 -114 -600 -268 -765 -342 -165 -74 -417
-186 -560 -250 -143 -63 -263 -119 -267 -122 -5 -4 27 -23 70 -44 115 -54 604
-278 627 -287 11 -4 54 -24 95 -43 67 -31 130 -60 385 -177 39 -18 111 -50
160 -72 50 -23 95 -44 100 -48 6 -4 38 -19 71 -34 34 -14 105 -46 159 -71 53
-25 98 -45 100 -45 2 0 65 -29 140 -65 76 -36 139 -65 140 -65 2 0 39 -16 82
-36 43 -20 155 -71 248 -114 242 -111 957 -438 1315 -602 337 -154 381 -179
441 -247 164 -185 156 -463 -18 -635 -57 -56 -68 -63 -438 -256 -195 -103
-344 -138 -524 -127 -155 11 -236 37 -501 165 -80 38 -224 107 -320 152 -96
45 -218 103 -270 127 -52 25 -135 65 -185 88 -49 23 -214 101 -365 172 -151
72 -304 144 -340 161 -36 16 -123 58 -195 92 -254 121 -682 324 -845 400 -91
42 -338 159 -550 260 -212 100 -421 199 -465 220 -157 73 -412 193 -530 250
-66 31 -304 144 -530 251 -375 177 -415 198 -463 246 -182 181 -152 483 62
620 21 14 183 91 360 173 176 81 350 161 386 178 36 16 117 53 180 82 63 29
147 67 185 85 39 18 122 56 185 85 63 29 156 71 205 95 84 40 148 69 450 208
187 86 483 222 555 255 312 144 674 311 1147 528 104 47 440 202 748 344 558
257 663 299 805 319 41 6 86 13 100 15 53 10 309 -3 385 -19z m11125 -3636
c342 -28 624 -103 918 -244 431 -207 747 -538 873 -913 108 -323 69 -571 -120
-762 -118 -120 -215 -160 -389 -160 -193 0 -297 57 -423 234 -38 52 -159 259
-159 270 0 2 -22 43 -50 91 -135 235 -298 407 -455 485 -321 159 -912 160
-1248 2 -368 -172 -539 -480 -436 -785 79 -235 358 -426 808 -553 69 -20 284
-75 476 -124 962 -242 1374 -399 1720 -655 423 -312 622 -770 602 -1380 -10
-299 -66 -524 -193 -778 -288 -575 -898 -962 -1699 -1077 -553 -80 -1172 -38
-1633 112 -355 115 -628 282 -873 535 -320 330 -519 760 -519 1121 0 167 46
285 155 400 203 215 554 229 757 29 81 -80 150 -191 219 -356 142 -337 246
-509 391 -646 150 -143 316 -228 536 -277 85 -19 129 -22 357 -22 214 -1 278
2 360 18 314 58 577 202 737 404 120 151 163 278 162 477 0 217 -50 349 -186
490 -202 212 -398 296 -1068 461 -536 131 -621 154 -861 235 -284 94 -578 226
-726 326 -322 217 -528 471 -632 780 -57 169 -73 266 -78 498 -4 173 -2 217
16 325 68 398 280 743 608 989 477 356 1218 519 2053 450z m16125 0 c498 -40
966 -212 1290 -472 114 -92 270 -257 343 -365 193 -282 268 -623 188 -853 -47
-134 -158 -269 -272 -331 -140 -75 -366 -79 -506 -7 -90 46 -207 200 -335 441
-93 177 -170 290 -269 396 -162 175 -295 244 -552 289 -140 24 -491 24 -627
-1 -479 -86 -794 -386 -772 -736 15 -232 151 -402 436 -545 189 -95 353 -145
946 -294 765 -191 1158 -331 1493 -533 275 -166 465 -368 597 -633 70 -142
105 -248 137 -425 31 -168 31 -525 0 -690 -136 -733 -635 -1255 -1430 -1496
-444 -134 -1054 -170 -1587 -93 -698 101 -1212 393 -1559 888 -199 284 -302
559 -313 836 -7 167 7 235 68 337 118 200 339 304 570 269 217 -34 372 -194
500 -518 77 -196 197 -414 295 -535 139 -172 363 -302 624 -361 85 -19 124
-22 365 -21 243 0 280 2 374 22 284 62 491 170 661 344 153 156 234 378 215
591 -17 198 -80 332 -216 462 -202 191 -429 284 -1074 440 -389 94 -444 108
-605 155 -470 138 -809 289 -1045 464 -104 77 -276 250 -350 350 -157 214
-242 461 -265 777 -24 312 34 604 170 867 203 392 554 668 1066 840 396 133
909 184 1439 141z m12819 -67 c229 -83 351 -248 363 -492 9 -191 -38 -328
-150 -439 -114 -113 -247 -165 -422 -165 -174 -1 -304 49 -425 160 -103 96
-153 225 -154 399 0 172 50 292 169 403 77 72 172 126 257 148 83 21 288 13
362 -14z m-23253 8 c144 -28 257 -117 328 -260 82 -168 75 84 79 -2745 2
-1764 0 -2558 -8 -2648 -40 -469 -243 -693 -610 -674 -208 11 -373 116 -456
290 -74 157 -68 -48 -71 2205 -2 1113 -7 2022 -11 2020 -4 -2 -77 -55 -162
-119 -418 -313 -783 -540 -1018 -633 -253 -101 -410 -79 -568 78 -110 110
-151 218 -141 371 14 220 76 276 604 538 338 167 436 223 633 361 230 161 498
428 687 683 341 462 357 482 419 508 74 31 205 42 295 25z m31132 -95 c89 -27
170 -78 248 -155 160 -159 179 -267 179 -1042 l0 -446 283 -4 c251 -4 289 -7
344 -25 125 -42 211 -114 261 -221 24 -51 27 -68 27 -172 0 -96 -4 -123 -22
-162 -83 -180 -311 -257 -766 -258 l-128 0 4 -1247 c3 -1153 5 -1254 21 -1323
31 -132 87 -210 179 -251 41 -18 75 -24 163 -27 93 -3 137 1 285 28 228 43
332 45 410 9 101 -47 180 -135 214 -237 13 -41 16 -77 13 -150 -3 -84 -8 -106
-36 -163 -89 -186 -341 -312 -726 -366 -179 -25 -621 -25 -771 0 -198 34 -349
86 -465 161 -168 109 -286 263 -349 456 -24 72 -65 284 -82 430 -8 66 -13 493
-16 1386 l-4 1291 -137 6 c-75 3 -166 13 -201 22 -132 32 -230 109 -284 223
-30 63 -32 74 -32 177 0 101 3 115 29 167 16 31 51 79 79 107 93 93 201 130
410 138 l137 6 0 451 c0 474 10 689 36 790 58 226 230 383 459 420 50 7 187
-3 238 -19z m-53406 -215 c40 -11 112 -38 160 -61 82 -38 296 -139 508 -239
50 -24 123 -58 164 -77 41 -18 110 -51 155 -72 69 -33 226 -107 756 -354 41
-19 107 -50 145 -67 39 -18 183 -86 321 -151 138 -65 280 -131 315 -147 35
-17 215 -100 399 -187 184 -86 499 -234 700 -327 201 -94 444 -208 540 -253
786 -371 806 -379 1015 -377 172 1 237 19 513 148 52 24 95 44 97 44 2 0 46
20 99 45 53 25 98 45 100 45 2 0 52 23 110 50 59 28 172 79 251 115 79 35 183
83 231 105 47 22 87 40 89 40 2 0 41 17 87 39 121 56 179 81 189 81 5 0 9
-374 9 -854 l0 -854 -50 -21 c-28 -12 -89 -39 -136 -61 -47 -22 -87 -40 -89
-40 -2 0 -41 -17 -87 -38 -46 -22 -121 -56 -168 -77 -156 -69 -463 -207 -630
-283 -408 -185 -424 -190 -595 -199 -139 -7 -240 9 -359 57 -39 15 -204 92
-366 170 -162 78 -322 155 -355 170 -33 15 -123 58 -200 95 -77 37 -185 89
-240 115 -214 102 -401 191 -650 310 -66 32 -169 81 -230 110 -60 29 -159 76
-220 105 -60 29 -207 98 -325 155 -118 56 -318 152 -445 213 -821 394 -788
381 -878 336 -48 -25 -61 -38 -87 -94 -18 -38 -20 -67 -20 -520 0 -446 2 -483
19 -520 10 -22 30 -51 44 -63 14 -13 164 -88 334 -166 328 -152 958 -445 1083
-503 41 -20 99 -46 128 -59 53 -24 302 -140 417 -193 91 -43 754 -351 885
-411 63 -29 156 -72 205 -95 50 -23 144 -67 210 -98 66 -30 154 -70 195 -90
471 -220 471 -220 584 -248 59 -13 117 -19 211 -19 218 0 208 -4 970 355 495
234 589 270 780 300 207 33 377 29 580 -14 393 -84 761 -340 987 -686 133
-205 215 -446 238 -705 8 -84 10 -310 7 -685 -4 -595 -6 -622 -61 -832 -105
-403 -389 -784 -764 -1026 -44 -29 -322 -168 -497 -249 -55 -25 -275 -130
-490 -233 -454 -218 -543 -257 -725 -318 -725 -244 -1539 -218 -2240 73 -113
47 -214 94 -520 242 -85 42 -270 131 -410 198 -349 168 -507 244 -695 335 -88
43 -209 101 -270 130 -60 29 -177 85 -260 125 -485 234 -685 331 -820 395 -49
23 -197 95 -329 159 -131 64 -239 116 -241 116 -1 0 -110 52 -241 116 -132 64
-266 129 -299 144 -124 57 -370 182 -399 203 -58 40 -148 132 -188 191 -200
292 -169 678 74 936 61 65 114 104 204 150 129 66 169 75 339 74 190 0 179 4
650 -219 55 -26 124 -58 152 -71 29 -13 126 -58 215 -100 545 -256 1036 -486
1163 -544 39 -18 113 -53 165 -78 239 -113 292 -137 400 -187 63 -29 167 -77
230 -108 63 -30 176 -83 250 -117 74 -35 173 -81 220 -103 380 -178 605 -283
785 -367 116 -54 298 -140 405 -190 344 -163 474 -197 724 -187 236 9 265 19
916 324 151 71 365 171 476 222 110 50 217 106 238 122 20 17 49 54 64 83 l27
51 3 407 c3 445 3 450 -55 492 -47 35 -99 32 -188 -9 -44 -21 -163 -75 -265
-122 -102 -47 -213 -98 -247 -114 -34 -16 -171 -79 -305 -140 -134 -61 -277
-127 -318 -146 -129 -60 -245 -85 -395 -86 -200 0 -261 19 -640 203 -126 62
-268 130 -315 152 -47 22 -204 98 -350 168 -146 70 -328 158 -405 195 -333
161 -409 197 -570 275 -93 45 -210 102 -260 125 -49 23 -171 82 -270 130 -99
48 -277 134 -395 190 -118 57 -289 139 -380 183 -91 43 -212 102 -270 130 -58
27 -177 85 -265 127 -177 86 -377 182 -530 255 -55 26 -199 96 -320 154 -121
59 -278 135 -350 169 -71 34 -215 103 -318 154 -172 85 -194 99 -255 161 -72
74 -128 173 -153 272 -12 46 -14 332 -14 1695 0 1540 1 1644 18 1710 65 255
260 449 522 520 79 21 257 19 342 -5z m10476 -124 c338 -101 579 -358 663
-706 17 -71 19 -219 22 -2905 2 -1937 0 -2858 -8 -2920 -19 -166 -72 -271
-193 -380 -55 -51 -138 -95 -779 -416 -395 -197 -720 -359 -723 -359 -3 0 -5
1232 -5 2738 l0 2738 -22 44 c-45 86 -133 101 -258 43 -36 -17 -114 -53 -175
-81 -60 -27 -195 -89 -300 -137 -104 -48 -262 -120 -350 -160 -88 -40 -194
-89 -235 -108 -41 -19 -151 -69 -245 -112 -93 -42 -178 -81 -187 -86 -17 -9
-18 33 -18 823 l0 833 213 108 c116 59 266 136 332 171 66 34 224 116 350 181
127 65 338 174 470 242 304 157 772 388 850 420 115 47 216 63 370 59 115 -3
156 -8 228 -30z m27822 -1225 c668 -102 1251 -473 1488 -948 151 -303 138
-535 -42 -713 -84 -83 -167 -126 -287 -147 -73 -12 -102 -13 -159 -4 -155 26
-236 93 -425 355 -308 426 -532 569 -921 591 -346 20 -651 -106 -856 -354
-190 -230 -294 -496 -332 -853 -14 -124 -14 -428 -1 -538 82 -679 424 -1096
962 -1176 241 -35 507 5 696 106 173 92 367 291 484 495 114 199 239 350 329
396 102 52 256 65 367 31 169 -53 314 -230 342 -418 36 -232 -106 -577 -338
-825 -325 -347 -762 -555 -1332 -636 -176 -25 -652 -25 -830 0 -131 19 -324
59 -400 84 -405 133 -699 322 -938 607 -279 330 -439 721 -497 1211 -20 167
-23 540 -6 695 55 500 206 911 458 1248 77 103 239 269 343 352 340 271 759
423 1275 464 126 10 494 -4 620 -23z m-12836 4 c142 -34 259 -127 329 -262 54
-106 74 -193 81 -353 l6 -134 43 54 c398 502 889 730 1522 707 420 -16 768
-156 1031 -417 112 -110 185 -216 268 -392 99 -207 132 -365 151 -719 13 -260
13 -2474 0 -2594 -32 -280 -160 -462 -379 -537 -95 -33 -277 -33 -373 0 -156
54 -269 163 -334 321 -59 146 -57 100 -64 1411 -6 1072 -8 1216 -24 1305 -74
430 -204 620 -478 695 -154 42 -368 44 -522 4 -327 -85 -621 -382 -705 -716
-56 -219 -63 -367 -71 -1503 -6 -922 -9 -1047 -23 -1103 -60 -227 -215 -383
-422 -427 -285 -60 -542 69 -646 326 -68 167 -64 41 -64 2029 0 2018 -5 1879
75 2048 64 135 171 221 318 256 76 19 203 19 281 1z m16192 1 c78 -17 153 -53
205 -98 95 -83 170 -267 189 -458 14 -147 8 -145 81 -30 112 177 247 336 369
432 269 215 776 225 1200 23 297 -142 431 -325 412 -560 -14 -164 -103 -304
-247 -387 -119 -69 -221 -73 -415 -14 -270 82 -342 98 -486 103 -108 5 -152 2
-215 -12 -395 -86 -581 -496 -634 -1390 -5 -93 -10 -485 -10 -870 0 -873 -6
-945 -85 -1114 -41 -86 -140 -190 -222 -234 -71 -38 -192 -67 -277 -67 -272 1
-467 155 -550 435 -21 69 -21 83 -24 1830 -2 1269 0 1786 8 1853 38 310 176
503 398 556 75 19 220 19 303 2z m3815 -6 c156 -40 286 -148 354 -292 75 -161
71 -38 67 -2058 l-3 -1805 -21 -75 c-35 -118 -87 -211 -157 -278 -109 -105
-212 -150 -361 -159 -175 -10 -303 36 -421 152 -107 106 -163 233 -184 420
-14 123 -13 3428 0 3550 22 192 68 303 169 405 140 143 344 194 557 140z
m2262 5 c95 -22 179 -70 250 -141 109 -109 154 -240 168 -485 l7 -126 67 76
c110 126 298 299 408 377 192 136 394 224 633 275 90 20 135 23 339 23 155 1
260 -4 310 -12 734 -131 1263 -605 1510 -1352 189 -574 188 -1335 -5 -1916
-127 -383 -287 -649 -537 -890 -263 -254 -574 -411 -953 -480 -123 -22 -485
-26 -610 -6 -376 61 -630 197 -941 507 -77 77 -159 163 -182 190 l-41 50 -1
-845 c0 -465 -5 -906 -10 -981 -31 -425 -190 -627 -510 -646 -174 -10 -317 29
-409 112 -81 73 -140 244 -161 465 -8 81 -10 896 -8 2730 l3 2615 23 79 c25
86 61 163 100 215 63 81 175 148 287 171 66 13 196 11 263 -5z m9719 4 c483
-39 896 -175 1177 -386 266 -199 406 -431 406 -671 0 -135 -42 -235 -136 -323
-91 -84 -204 -121 -373 -121 -106 0 -189 22 -264 69 -57 36 -203 184 -319 324
-104 126 -166 183 -274 252 -149 96 -259 122 -514 122 -158 0 -198 -4 -273
-23 -283 -71 -457 -240 -457 -441 0 -22 9 -68 20 -104 43 -139 196 -255 453
-346 105 -37 176 -56 647 -176 488 -125 702 -195 935 -306 196 -93 345 -195
478 -327 235 -231 330 -503 298 -854 -15 -161 -40 -279 -87 -407 -180 -485
-627 -799 -1296 -910 -195 -33 -288 -41 -523 -48 -403 -11 -760 36 -1051 138
-176 61 -409 184 -544 286 -294 222 -486 605 -443 883 36 232 228 390 472 390
195 0 296 -62 419 -258 138 -218 192 -292 277 -377 195 -195 381 -276 706
-306 339 -31 615 39 794 203 36 33 79 79 94 102 78 114 80 285 5 442 -93 195
-329 307 -1009 478 -428 107 -811 240 -1031 357 -189 101 -402 277 -499 414
-213 298 -242 725 -74 1083 198 422 618 710 1181 812 207 37 554 50 805 29z"/>
<path d="M81680 53555 c-210 -42 -401 -151 -557 -318 -233 -250 -344 -575
-360 -1052 -20 -606 142 -1041 492 -1321 132 -106 293 -178 458 -204 111 -18
331 -8 427 19 201 58 400 200 524 374 142 199 228 425 273 717 21 143 24 506
5 658 -77 606 -402 1030 -863 1127 -87 18 -308 18 -399 0z"/>
</g>
</svg>
